<svg xmlns="http://www.w3.org/2000/svg" viewBox="0 0 790 620" role="img" aria-labelledby="t d"><title id="t">Alfabet semaphore A sampai Z</title><desc id="d">Diagram visual A sampai Z dengan pasangan posisi tangan semaphore pada sudut 45 derajat.</desc><rect width="790" height="620" rx="32" fill="#f6f8f4"/><text x="28" y="32" font-family="Arial,sans-serif" font-size="12" font-weight="700" fill="#66756c" letter-spacing="2">KIWANTIKA · SEMAPHORE A–Z</text><text x="760" y="32" text-anchor="end" font-family="Arial,sans-serif" font-size="11" fill="#66756c">Posisi dilihat dari pengirim</text><g transform="translate(0,0)"><rect x="8" y="8" width="144" height="88" rx="14" fill="#fff" stroke="#dce5de"/><g><circle cx="78" cy="30" r="6" fill="#123d2a"/><path d="M78 36 L78 72" stroke="#123d2a" stroke-width="5" stroke-linecap="round"/><path d="M78 47 L46.185 78.815" stroke="#123d2a" stroke-width="4" stroke-linecap="round"/><path d="M78 47 L78 92" stroke="#123d2a" stroke-width="4" stroke-linecap="round"/><path d="M46.185 78.815 l-11.3 -11.3 l12.7 -12.7 z" fill="#c83b31"/><path d="M78 92 l-16.0 0.0 l0.0 -18.0 z" fill="#e4bd4f"/><text x="78" y="96" text-anchor="middle" font-family="Arial,sans-serif" font-size="18" font-weight="900" fill="#123d2a">A</text></g><text x="18" y="26" font-family="Arial,sans-serif" font-size="8" fill="#829087">7:30 / 6:00</text></g><g transform="translate(155,0)"><rect x="8" y="8" width="144" height="88" rx="14" fill="#fff" stroke="#dce5de"/><g><circle cx="78" cy="30" r="6" fill="#123d2a"/><path d="M78 36 L78 72" stroke="#123d2a" stroke-width="5" stroke-linecap="round"/><path d="M78 47 L33 47" stroke="#123d2a" stroke-width="4" stroke-linecap="round"/><path d="M78 47 L78 92" stroke="#123d2a" stroke-width="4" stroke-linecap="round"/><path d="M33 47 l0.0 -16.0 l18.0 0.0 z" fill="#c83b31"/><path d="M78 92 l-16.0 0.0 l0.0 -18.0 z" fill="#e4bd4f"/><text x="78" y="96" text-anchor="middle" font-family="Arial,sans-serif" font-size="18" font-weight="900" fill="#123d2a">B</text></g><text x="18" y="26" font-family="Arial,sans-serif" font-size="8" fill="#829087">9:00 / 6:00</text></g><g transform="translate(310,0)"><rect x="8" y="8" width="144" height="88" rx="14" fill="#fff" stroke="#dce5de"/><g><circle cx="78" cy="30" r="6" fill="#123d2a"/><path d="M78 36 L78 72" stroke="#123d2a" stroke-width="5" stroke-linecap="round"/><path d="M78 47 L46.185 15.185000000000002" stroke="#123d2a" stroke-width="4" stroke-linecap="round"/><path d="M78 47 L78 92" stroke="#123d2a" stroke-width="4" stroke-linecap="round"/><path d="M46.185 15.185000000000002 l11.3 -11.3 l12.7 12.7 z" fill="#c83b31"/><path d="M78 92 l-16.0 0.0 l0.0 -18.0 z" fill="#e4bd4f"/><text x="78" y="96" text-anchor="middle" font-family="Arial,sans-serif" font-size="18" font-weight="900" fill="#123d2a">C</text></g><text x="18" y="26" font-family="Arial,sans-serif" font-size="8" fill="#829087">10:30 / 6:00</text></g><g transform="translate(465,0)"><rect x="8" y="8" width="144" height="88" rx="14" fill="#fff" stroke="#dce5de"/><g><circle cx="78" cy="30" r="6" fill="#123d2a"/><path d="M78 36 L78 72" stroke="#123d2a" stroke-width="5" stroke-linecap="round"/><path d="M78 47 L78 2" stroke="#123d2a" stroke-width="4" stroke-linecap="round"/><path d="M78 47 L78 92" stroke="#123d2a" stroke-width="4" stroke-linecap="round"/><path d="M78 2 l16.0 0.0 l0.0 18.0 z" fill="#c83b31"/><path d="M78 92 l-16.0 0.0 l0.0 -18.0 z" fill="#e4bd4f"/><text x="78" y="96" text-anchor="middle" font-family="Arial,sans-serif" font-size="18" font-weight="900" fill="#123d2a">D</text></g><text x="18" y="26" font-family="Arial,sans-serif" font-size="8" fill="#829087">12:00 / 6:00</text></g><g transform="translate(620,0)"><rect x="8" y="8" width="144" height="88" rx="14" fill="#fff" stroke="#dce5de"/><g><circle cx="78" cy="30" r="6" fill="#123d2a"/><path d="M78 36 L78 72" stroke="#123d2a" stroke-width="5" stroke-linecap="round"/><path d="M78 47 L78 92" stroke="#123d2a" stroke-width="4" stroke-linecap="round"/><path d="M78 47 L109.815 15.185000000000002" stroke="#123d2a" stroke-width="4" stroke-linecap="round"/><path d="M78 92 l-16.0 0.0 l0.0 -18.0 z" fill="#c83b31"/><path d="M109.815 15.185000000000002 l11.3 11.3 l-12.7 12.7 z" fill="#e4bd4f"/><text x="78" y="96" text-anchor="middle" font-family="Arial,sans-serif" font-size="18" font-weight="900" fill="#123d2a">E</text></g><text x="18" y="26" font-family="Arial,sans-serif" font-size="8" fill="#829087">6:00 / 1:30</text></g><g transform="translate(0,98)"><rect x="8" y="8" width="144" height="88" rx="14" fill="#fff" stroke="#dce5de"/><g><circle cx="78" cy="30" r="6" fill="#123d2a"/><path d="M78 36 L78 72" stroke="#123d2a" stroke-width="5" stroke-linecap="round"/><path d="M78 47 L78 92" stroke="#123d2a" stroke-width="4" stroke-linecap="round"/><path d="M78 47 L123 47" stroke="#123d2a" stroke-width="4" stroke-linecap="round"/><path d="M78 92 l-16.0 0.0 l0.0 -18.0 z" fill="#c83b31"/><path d="M123 47 l0.0 16.0 l-18.0 0.0 z" fill="#e4bd4f"/><text x="78" y="96" text-anchor="middle" font-family="Arial,sans-serif" font-size="18" font-weight="900" fill="#123d2a">F</text></g><text x="18" y="26" font-family="Arial,sans-serif" font-size="8" fill="#829087">6:00 / 3:00</text></g><g transform="translate(155,98)"><rect x="8" y="8" width="144" height="88" rx="14" fill="#fff" stroke="#dce5de"/><g><circle cx="78" cy="30" r="6" fill="#123d2a"/><path d="M78 36 L78 72" stroke="#123d2a" stroke-width="5" stroke-linecap="round"/><path d="M78 47 L78 92" stroke="#123d2a" stroke-width="4" stroke-linecap="round"/><path d="M78 47 L109.815 78.815" stroke="#123d2a" stroke-width="4" stroke-linecap="round"/><path d="M78 92 l-16.0 0.0 l0.0 -18.0 z" fill="#c83b31"/><path d="M109.815 78.815 l-11.3 11.3 l-12.7 -12.7 z" fill="#e4bd4f"/><text x="78" y="96" text-anchor="middle" font-family="Arial,sans-serif" font-size="18" font-weight="900" fill="#123d2a">G</text></g><text x="18" y="26" font-family="Arial,sans-serif" font-size="8" fill="#829087">6:00 / 4:30</text></g><g transform="translate(310,98)"><rect x="8" y="8" width="144" height="88" rx="14" fill="#fff" stroke="#dce5de"/><g><circle cx="78" cy="30" r="6" fill="#123d2a"/><path d="M78 36 L78 72" stroke="#123d2a" stroke-width="5" stroke-linecap="round"/><path d="M78 47 L33 47" stroke="#123d2a" stroke-width="4" stroke-linecap="round"/><path d="M78 47 L46.185 78.815" stroke="#123d2a" stroke-width="4" stroke-linecap="round"/><path d="M33 47 l0.0 -16.0 l18.0 0.0 z" fill="#c83b31"/><path d="M46.185 78.815 l-11.3 -11.3 l12.7 -12.7 z" fill="#e4bd4f"/><text x="78" y="96" text-anchor="middle" font-family="Arial,sans-serif" font-size="18" font-weight="900" fill="#123d2a">H</text></g><text x="18" y="26" font-family="Arial,sans-serif" font-size="8" fill="#829087">9:00 / 7:30</text></g><g transform="translate(465,98)"><rect x="8" y="8" width="144" height="88" rx="14" fill="#fff" stroke="#dce5de"/><g><circle cx="78" cy="30" r="6" fill="#123d2a"/><path d="M78 36 L78 72" stroke="#123d2a" stroke-width="5" stroke-linecap="round"/><path d="M78 47 L46.185 78.815" stroke="#123d2a" stroke-width="4" stroke-linecap="round"/><path d="M78 47 L46.185 15.185000000000002" stroke="#123d2a" stroke-width="4" stroke-linecap="round"/><path d="M46.185 78.815 l-11.3 -11.3 l12.7 -12.7 z" fill="#c83b31"/><path d="M46.185 15.185000000000002 l11.3 -11.3 l12.7 12.7 z" fill="#e4bd4f"/><text x="78" y="96" text-anchor="middle" font-family="Arial,sans-serif" font-size="18" font-weight="900" fill="#123d2a">I</text></g><text x="18" y="26" font-family="Arial,sans-serif" font-size="8" fill="#829087">7:30 / 10:30</text></g><g transform="translate(620,98)"><rect x="8" y="8" width="144" height="88" rx="14" fill="#fff" stroke="#dce5de"/><g><circle cx="78" cy="30" r="6" fill="#123d2a"/><path d="M78 36 L78 72" stroke="#123d2a" stroke-width="5" stroke-linecap="round"/><path d="M78 47 L78 2" stroke="#123d2a" stroke-width="4" stroke-linecap="round"/><path d="M78 47 L123 47" stroke="#123d2a" stroke-width="4" stroke-linecap="round"/><path d="M78 2 l16.0 0.0 l0.0 18.0 z" fill="#c83b31"/><path d="M123 47 l0.0 16.0 l-18.0 0.0 z" fill="#e4bd4f"/><text x="78" y="96" text-anchor="middle" font-family="Arial,sans-serif" font-size="18" font-weight="900" fill="#123d2a">J</text></g><text x="18" y="26" font-family="Arial,sans-serif" font-size="8" fill="#829087">12:00 / 3:00</text></g><g transform="translate(0,196)"><rect x="8" y="8" width="144" height="88" rx="14" fill="#fff" stroke="#dce5de"/><g><circle cx="78" cy="30" r="6" fill="#123d2a"/><path d="M78 36 L78 72" stroke="#123d2a" stroke-width="5" stroke-linecap="round"/><path d="M78 47 L46.185 78.815" stroke="#123d2a" stroke-width="4" stroke-linecap="round"/><path d="M78 47 L78 2" stroke="#123d2a" stroke-width="4" stroke-linecap="round"/><path d="M46.185 78.815 l-11.3 -11.3 l12.7 -12.7 z" fill="#c83b31"/><path d="M78 2 l16.0 0.0 l0.0 18.0 z" fill="#e4bd4f"/><text x="78" y="96" text-anchor="middle" font-family="Arial,sans-serif" font-size="18" font-weight="900" fill="#123d2a">K</text></g><text x="18" y="26" font-family="Arial,sans-serif" font-size="8" fill="#829087">7:30 / 12:00</text></g><g transform="translate(155,196)"><rect x="8" y="8" width="144" height="88" rx="14" fill="#fff" stroke="#dce5de"/><g><circle cx="78" cy="30" r="6" fill="#123d2a"/><path d="M78 36 L78 72" stroke="#123d2a" stroke-width="5" stroke-linecap="round"/><path d="M78 47 L46.185 78.815" stroke="#123d2a" stroke-width="4" stroke-linecap="round"/><path d="M78 47 L109.815 15.185000000000002" stroke="#123d2a" stroke-width="4" stroke-linecap="round"/><path d="M46.185 78.815 l-11.3 -11.3 l12.7 -12.7 z" fill="#c83b31"/><path d="M109.815 15.185000000000002 l11.3 11.3 l-12.7 12.7 z" fill="#e4bd4f"/><text x="78" y="96" text-anchor="middle" font-family="Arial,sans-serif" font-size="18" font-weight="900" fill="#123d2a">L</text></g><text x="18" y="26" font-family="Arial,sans-serif" font-size="8" fill="#829087">7:30 / 1:30</text></g><g transform="translate(310,196)"><rect x="8" y="8" width="144" height="88" rx="14" fill="#fff" stroke="#dce5de"/><g><circle cx="78" cy="30" r="6" fill="#123d2a"/><path d="M78 36 L78 72" stroke="#123d2a" stroke-width="5" stroke-linecap="round"/><path d="M78 47 L46.185 78.815" stroke="#123d2a" stroke-width="4" stroke-linecap="round"/><path d="M78 47 L123 47" stroke="#123d2a" stroke-width="4" stroke-linecap="round"/><path d="M46.185 78.815 l-11.3 -11.3 l12.7 -12.7 z" fill="#c83b31"/><path d="M123 47 l0.0 16.0 l-18.0 0.0 z" fill="#e4bd4f"/><text x="78" y="96" text-anchor="middle" font-family="Arial,sans-serif" font-size="18" font-weight="900" fill="#123d2a">M</text></g><text x="18" y="26" font-family="Arial,sans-serif" font-size="8" fill="#829087">7:30 / 3:00</text></g><g transform="translate(465,196)"><rect x="8" y="8" width="144" height="88" rx="14" fill="#fff" stroke="#dce5de"/><g><circle cx="78" cy="30" r="6" fill="#123d2a"/><path d="M78 36 L78 72" stroke="#123d2a" stroke-width="5" stroke-linecap="round"/><path d="M78 47 L46.185 78.815" stroke="#123d2a" stroke-width="4" stroke-linecap="round"/><path d="M78 47 L109.815 78.815" stroke="#123d2a" stroke-width="4" stroke-linecap="round"/><path d="M46.185 78.815 l-11.3 -11.3 l12.7 -12.7 z" fill="#c83b31"/><path d="M109.815 78.815 l-11.3 11.3 l-12.7 -12.7 z" fill="#e4bd4f"/><text x="78" y="96" text-anchor="middle" font-family="Arial,sans-serif" font-size="18" font-weight="900" fill="#123d2a">N</text></g><text x="18" y="26" font-family="Arial,sans-serif" font-size="8" fill="#829087">7:30 / 4:30</text></g><g transform="translate(620,196)"><rect x="8" y="8" width="144" height="88" rx="14" fill="#fff" stroke="#dce5de"/><g><circle cx="78" cy="30" r="6" fill="#123d2a"/><path d="M78 36 L78 72" stroke="#123d2a" stroke-width="5" stroke-linecap="round"/><path d="M78 47 L33 47" stroke="#123d2a" stroke-width="4" stroke-linecap="round"/><path d="M78 47 L46.185 15.185000000000002" stroke="#123d2a" stroke-width="4" stroke-linecap="round"/><path d="M33 47 l0.0 -16.0 l18.0 0.0 z" fill="#c83b31"/><path d="M46.185 15.185000000000002 l11.3 -11.3 l12.7 12.7 z" fill="#e4bd4f"/><text x="78" y="96" text-anchor="middle" font-family="Arial,sans-serif" font-size="18" font-weight="900" fill="#123d2a">O</text></g><text x="18" y="26" font-family="Arial,sans-serif" font-size="8" fill="#829087">9:00 / 10:30</text></g><g transform="translate(0,294)"><rect x="8" y="8" width="144" height="88" rx="14" fill="#fff" stroke="#dce5de"/><g><circle cx="78" cy="30" r="6" fill="#123d2a"/><path d="M78 36 L78 72" stroke="#123d2a" stroke-width="5" stroke-linecap="round"/><path d="M78 47 L33 47" stroke="#123d2a" stroke-width="4" stroke-linecap="round"/><path d="M78 47 L78 2" stroke="#123d2a" stroke-width="4" stroke-linecap="round"/><path d="M33 47 l0.0 -16.0 l18.0 0.0 z" fill="#c83b31"/><path d="M78 2 l16.0 0.0 l0.0 18.0 z" fill="#e4bd4f"/><text x="78" y="96" text-anchor="middle" font-family="Arial,sans-serif" font-size="18" font-weight="900" fill="#123d2a">P</text></g><text x="18" y="26" font-family="Arial,sans-serif" font-size="8" fill="#829087">9:00 / 12:00</text></g><g transform="translate(155,294)"><rect x="8" y="8" width="144" height="88" rx="14" fill="#fff" stroke="#dce5de"/><g><circle cx="78" cy="30" r="6" fill="#123d2a"/><path d="M78 36 L78 72" stroke="#123d2a" stroke-width="5" stroke-linecap="round"/><path d="M78 47 L33 47" stroke="#123d2a" stroke-width="4" stroke-linecap="round"/><path d="M78 47 L109.815 15.185000000000002" stroke="#123d2a" stroke-width="4" stroke-linecap="round"/><path d="M33 47 l0.0 -16.0 l18.0 0.0 z" fill="#c83b31"/><path d="M109.815 15.185000000000002 l11.3 11.3 l-12.7 12.7 z" fill="#e4bd4f"/><text x="78" y="96" text-anchor="middle" font-family="Arial,sans-serif" font-size="18" font-weight="900" fill="#123d2a">Q</text></g><text x="18" y="26" font-family="Arial,sans-serif" font-size="8" fill="#829087">9:00 / 1:30</text></g><g transform="translate(310,294)"><rect x="8" y="8" width="144" height="88" rx="14" fill="#fff" stroke="#dce5de"/><g><circle cx="78" cy="30" r="6" fill="#123d2a"/><path d="M78 36 L78 72" stroke="#123d2a" stroke-width="5" stroke-linecap="round"/><path d="M78 47 L33 47" stroke="#123d2a" stroke-width="4" stroke-linecap="round"/><path d="M78 47 L123 47" stroke="#123d2a" stroke-width="4" stroke-linecap="round"/><path d="M33 47 l0.0 -16.0 l18.0 0.0 z" fill="#c83b31"/><path d="M123 47 l0.0 16.0 l-18.0 0.0 z" fill="#e4bd4f"/><text x="78" y="96" text-anchor="middle" font-family="Arial,sans-serif" font-size="18" font-weight="900" fill="#123d2a">R</text></g><text x="18" y="26" font-family="Arial,sans-serif" font-size="8" fill="#829087">9:00 / 3:00</text></g><g transform="translate(465,294)"><rect x="8" y="8" width="144" height="88" rx="14" fill="#fff" stroke="#dce5de"/><g><circle cx="78" cy="30" r="6" fill="#123d2a"/><path d="M78 36 L78 72" stroke="#123d2a" stroke-width="5" stroke-linecap="round"/><path d="M78 47 L33 47" stroke="#123d2a" stroke-width="4" stroke-linecap="round"/><path d="M78 47 L109.815 78.815" stroke="#123d2a" stroke-width="4" stroke-linecap="round"/><path d="M33 47 l0.0 -16.0 l18.0 0.0 z" fill="#c83b31"/><path d="M109.815 78.815 l-11.3 11.3 l-12.7 -12.7 z" fill="#e4bd4f"/><text x="78" y="96" text-anchor="middle" font-family="Arial,sans-serif" font-size="18" font-weight="900" fill="#123d2a">S</text></g><text x="18" y="26" font-family="Arial,sans-serif" font-size="8" fill="#829087">9:00 / 4:30</text></g><g transform="translate(620,294)"><rect x="8" y="8" width="144" height="88" rx="14" fill="#fff" stroke="#dce5de"/><g><circle cx="78" cy="30" r="6" fill="#123d2a"/><path d="M78 36 L78 72" stroke="#123d2a" stroke-width="5" stroke-linecap="round"/><path d="M78 47 L46.185 15.185000000000002" stroke="#123d2a" stroke-width="4" stroke-linecap="round"/><path d="M78 47 L78 2" stroke="#123d2a" stroke-width="4" stroke-linecap="round"/><path d="M46.185 15.185000000000002 l11.3 -11.3 l12.7 12.7 z" fill="#c83b31"/><path d="M78 2 l16.0 0.0 l0.0 18.0 z" fill="#e4bd4f"/><text x="78" y="96" text-anchor="middle" font-family="Arial,sans-serif" font-size="18" font-weight="900" fill="#123d2a">T</text></g><text x="18" y="26" font-family="Arial,sans-serif" font-size="8" fill="#829087">10:30 / 12:00</text></g><g transform="translate(0,392)"><rect x="8" y="8" width="144" height="88" rx="14" fill="#fff" stroke="#dce5de"/><g><circle cx="78" cy="30" r="6" fill="#123d2a"/><path d="M78 36 L78 72" stroke="#123d2a" stroke-width="5" stroke-linecap="round"/><path d="M78 47 L46.185 15.185000000000002" stroke="#123d2a" stroke-width="4" stroke-linecap="round"/><path d="M78 47 L109.815 15.185000000000002" stroke="#123d2a" stroke-width="4" stroke-linecap="round"/><path d="M46.185 15.185000000000002 l11.3 -11.3 l12.7 12.7 z" fill="#c83b31"/><path d="M109.815 15.185000000000002 l11.3 11.3 l-12.7 12.7 z" fill="#e4bd4f"/><text x="78" y="96" text-anchor="middle" font-family="Arial,sans-serif" font-size="18" font-weight="900" fill="#123d2a">U</text></g><text x="18" y="26" font-family="Arial,sans-serif" font-size="8" fill="#829087">10:30 / 1:30</text></g><g transform="translate(155,392)"><rect x="8" y="8" width="144" height="88" rx="14" fill="#fff" stroke="#dce5de"/><g><circle cx="78" cy="30" r="6" fill="#123d2a"/><path d="M78 36 L78 72" stroke="#123d2a" stroke-width="5" stroke-linecap="round"/><path d="M78 47 L78 2" stroke="#123d2a" stroke-width="4" stroke-linecap="round"/><path d="M78 47 L109.815 78.815" stroke="#123d2a" stroke-width="4" stroke-linecap="round"/><path d="M78 2 l16.0 0.0 l0.0 18.0 z" fill="#c83b31"/><path d="M109.815 78.815 l-11.3 11.3 l-12.7 -12.7 z" fill="#e4bd4f"/><text x="78" y="96" text-anchor="middle" font-family="Arial,sans-serif" font-size="18" font-weight="900" fill="#123d2a">V</text></g><text x="18" y="26" font-family="Arial,sans-serif" font-size="8" fill="#829087">12:00 / 4:30</text></g><g transform="translate(310,392)"><rect x="8" y="8" width="144" height="88" rx="14" fill="#fff" stroke="#dce5de"/><g><circle cx="78" cy="30" r="6" fill="#123d2a"/><path d="M78 36 L78 72" stroke="#123d2a" stroke-width="5" stroke-linecap="round"/><path d="M78 47 L109.815 15.185000000000002" stroke="#123d2a" stroke-width="4" stroke-linecap="round"/><path d="M78 47 L123 47" stroke="#123d2a" stroke-width="4" stroke-linecap="round"/><path d="M109.815 15.185000000000002 l11.3 11.3 l-12.7 12.7 z" fill="#c83b31"/><path d="M123 47 l0.0 16.0 l-18.0 0.0 z" fill="#e4bd4f"/><text x="78" y="96" text-anchor="middle" font-family="Arial,sans-serif" font-size="18" font-weight="900" fill="#123d2a">W</text></g><text x="18" y="26" font-family="Arial,sans-serif" font-size="8" fill="#829087">1:30 / 3:00</text></g><g transform="translate(465,392)"><rect x="8" y="8" width="144" height="88" rx="14" fill="#fff" stroke="#dce5de"/><g><circle cx="78" cy="30" r="6" fill="#123d2a"/><path d="M78 36 L78 72" stroke="#123d2a" stroke-width="5" stroke-linecap="round"/><path d="M78 47 L109.815 15.185000000000002" stroke="#123d2a" stroke-width="4" stroke-linecap="round"/><path d="M78 47 L109.815 78.815" stroke="#123d2a" stroke-width="4" stroke-linecap="round"/><path d="M109.815 15.185000000000002 l11.3 11.3 l-12.7 12.7 z" fill="#c83b31"/><path d="M109.815 78.815 l-11.3 11.3 l-12.7 -12.7 z" fill="#e4bd4f"/><text x="78" y="96" text-anchor="middle" font-family="Arial,sans-serif" font-size="18" font-weight="900" fill="#123d2a">X</text></g><text x="18" y="26" font-family="Arial,sans-serif" font-size="8" fill="#829087">1:30 / 4:30</text></g><g transform="translate(620,392)"><rect x="8" y="8" width="144" height="88" rx="14" fill="#fff" stroke="#dce5de"/><g><circle cx="78" cy="30" r="6" fill="#123d2a"/><path d="M78 36 L78 72" stroke="#123d2a" stroke-width="5" stroke-linecap="round"/><path d="M78 47 L46.185 15.185000000000002" stroke="#123d2a" stroke-width="4" stroke-linecap="round"/><path d="M78 47 L123 47" stroke="#123d2a" stroke-width="4" stroke-linecap="round"/><path d="M46.185 15.185000000000002 l11.3 -11.3 l12.7 12.7 z" fill="#c83b31"/><path d="M123 47 l0.0 16.0 l-18.0 0.0 z" fill="#e4bd4f"/><text x="78" y="96" text-anchor="middle" font-family="Arial,sans-serif" font-size="18" font-weight="900" fill="#123d2a">Y</text></g><text x="18" y="26" font-family="Arial,sans-serif" font-size="8" fill="#829087">10:30 / 3:00</text></g><g transform="translate(0,490)"><rect x="8" y="8" width="144" height="88" rx="14" fill="#fff" stroke="#dce5de"/><g><circle cx="78" cy="30" r="6" fill="#123d2a"/><path d="M78 36 L78 72" stroke="#123d2a" stroke-width="5" stroke-linecap="round"/><path d="M78 47 L109.815 78.815" stroke="#123d2a" stroke-width="4" stroke-linecap="round"/><path d="M78 47 L123 47" stroke="#123d2a" stroke-width="4" stroke-linecap="round"/><path d="M109.815 78.815 l-11.3 11.3 l-12.7 -12.7 z" fill="#c83b31"/><path d="M123 47 l0.0 16.0 l-18.0 0.0 z" fill="#e4bd4f"/><text x="78" y="96" text-anchor="middle" font-family="Arial,sans-serif" font-size="18" font-weight="900" fill="#123d2a">Z</text></g><text x="18" y="26" font-family="Arial,sans-serif" font-size="8" fill="#829087">4:30 / 3:00</text></g><text x="28" y="605" font-family="Arial,sans-serif" font-size="11" fill="#728077">Merah = tangan kiri · Kuning = tangan kanan · setiap pasangan membentuk satu karakter</text></svg>